<svg width="24" height="24" viewBox="0 0 24 24" fill="none" xmlns="http://www.w3.org/2000/svg">
<path d="M12 4.125C10.4425 4.125 8.91993 4.58686 7.62489 5.45218C6.32985 6.31749 5.32049 7.5474 4.72445 8.98637C4.12841 10.4253 3.97246 12.0087 4.27632 13.5363C4.58018 15.0639 5.3302 16.4671 6.43154 17.5685C7.53288 18.6698 8.93607 19.4198 10.4637 19.7237C11.9913 20.0275 13.5747 19.8716 15.0136 19.2756C16.4526 18.6795 17.6825 17.6702 18.5478 16.3751C19.4131 15.0801 19.875 13.5575 19.875 12C19.8727 9.91212 19.0423 7.91041 17.566 6.43405C16.0896 4.9577 14.0879 4.12728 12 4.125ZM15.585 14.715C15.5152 14.8034 15.4263 14.875 15.3251 14.9243C15.2238 14.9737 15.1127 14.9995 15 15C14.8304 15.0014 14.6657 14.9429 14.5349 14.835L11.5349 12.585C11.4466 12.5151 11.3751 12.4262 11.3258 12.325C11.2765 12.2237 11.2506 12.1126 11.25 12V6.75C11.25 6.55109 11.329 6.36032 11.4697 6.21967C11.6103 6.07902 11.8011 6 12 6C12.1989 6 12.3897 6.07902 12.5303 6.21967C12.671 6.36032 12.75 6.55109 12.75 6.75V11.64L15.4651 13.665C15.5432 13.7252 15.6083 13.8004 15.6568 13.8862C15.7052 13.972 15.736 14.0667 15.7472 14.1646C15.7583 14.2626 15.7497 14.3617 15.7219 14.4563C15.694 14.5508 15.6475 14.6388 15.585 14.715Z" fill="white"/>
<path d="M12 0.75C9.77497 0.75 7.59989 1.4098 5.74984 2.64597C3.89979 3.88213 2.45785 5.63914 1.60636 7.69481C0.754875 9.75048 0.532087 12.0125 0.966171 14.1948C1.40025 16.3771 2.47171 18.3816 4.04505 19.955C5.61839 21.5283 7.62295 22.5998 9.80524 23.0338C11.9875 23.4679 14.2495 23.2451 16.3052 22.3936C18.3609 21.5422 20.1179 20.1002 21.354 18.2502C22.5902 16.4001 23.25 14.225 23.25 12C23.2464 9.01743 22.0599 6.15805 19.951 4.04906C17.842 1.94006 14.9826 0.753628 12 0.75ZM12 21.425C10.1359 21.425 8.31369 20.8722 6.76376 19.8366C5.21383 18.801 4.00581 17.329 3.29245 15.6068C2.5791 13.8846 2.39245 11.9895 2.75612 10.1613C3.11978 8.33301 4.01742 6.65364 5.33553 5.33553C6.65364 4.01742 8.33301 3.11978 10.1613 2.75611C11.9895 2.39245 13.8846 2.57909 15.6068 3.29245C17.329 4.0058 18.801 5.21383 19.8366 6.76376C20.8722 8.31369 21.425 10.1359 21.425 12C21.4226 14.4989 20.4288 16.8948 18.6618 18.6618C16.8948 20.4288 14.4989 21.4226 12 21.425Z" fill="white"/>
</svg>
