<svg width="25" height="24" viewBox="0 0 25 24" fill="none" xmlns="http://www.w3.org/2000/svg">
<g clip-path="url(#clip0_131_1230)">
<path d="M16.631 12C16.631 12.7595 16.4011 13.5019 15.9702 14.1334C15.5393 14.7649 14.9268 15.2571 14.2103 15.5477C13.4937 15.8383 12.7052 15.9144 11.9446 15.7662C11.1839 15.618 10.4851 15.2523 9.93671 14.7153C9.38829 14.1783 9.01481 13.494 8.8635 12.7491C8.71219 12.0043 8.78985 11.2322 9.08665 10.5305C9.38346 9.82883 9.88608 9.2291 10.531 8.80716C11.1758 8.38521 11.934 8.16 12.7096 8.16C13.7486 8.16316 14.7442 8.56875 15.4789 9.28821C16.2136 10.0077 16.6278 10.9825 16.631 12ZM24.9641 6.72V17.28C24.9641 19.0623 24.2411 20.7715 22.9541 22.0318C21.6671 23.292 19.9216 24 18.1016 24H7.31761C5.49755 24 3.75204 23.292 2.46507 22.0318C1.17809 20.7715 0.455078 19.0623 0.455078 17.28V6.72C0.455078 4.93775 1.17809 3.22849 2.46507 1.96824C3.75204 0.707998 5.49755 0 7.31761 0H18.1016C19.9216 0 21.6671 0.707998 22.9541 1.96824C24.2411 3.22849 24.9641 4.93775 24.9641 6.72ZM18.5918 12C18.5918 10.8608 18.2468 9.74714 17.6004 8.79992C16.9541 7.85269 16.0354 7.11441 14.9606 6.67845C13.8858 6.24249 12.7031 6.12843 11.562 6.35068C10.421 6.57293 9.37291 7.12151 8.55027 7.92706C7.72764 8.73262 7.16742 9.75895 6.94045 10.8763C6.71349 11.9936 6.82997 13.1518 7.27518 14.2043C7.72039 15.2568 8.47432 16.1563 9.44164 16.7893C10.409 17.4222 11.5462 17.76 12.7096 17.76C14.2696 17.76 15.7658 17.1531 16.8689 16.0729C17.972 14.9927 18.5918 13.5276 18.5918 12ZM20.5525 5.76C20.5525 5.47519 20.4662 5.19679 20.3047 4.95998C20.1431 4.72317 19.9134 4.5386 19.6447 4.42961C19.376 4.32062 19.0803 4.29211 18.7951 4.34767C18.5098 4.40323 18.2478 4.54038 18.0421 4.74177C17.8365 4.94315 17.6964 5.19974 17.6397 5.47907C17.5829 5.7584 17.612 6.04794 17.7233 6.31106C17.8346 6.57419 18.0231 6.79909 18.265 6.95732C18.5068 7.11555 18.7911 7.2 19.0819 7.2C19.472 7.2 19.846 7.04829 20.1218 6.77823C20.3976 6.50818 20.5525 6.14191 20.5525 5.76Z" fill="#22AC97"/>
</g>
<defs>
<clipPath id="clip0_131_1230">
<rect width="24.509" height="24" fill="white" transform="translate(0.455078)"/>
</clipPath>
</defs>
</svg>
