<svg width="25" height="24" viewBox="0 0 25 24" fill="none" xmlns="http://www.w3.org/2000/svg">
<path d="M11.0293 13.936L14.4283 12.005L11.0293 10.0645V13.936Z" fill="#C6C8D9"/>
<path d="M12.7291 0C10.3054 0 7.93613 0.703788 5.92089 2.02236C3.90564 3.34094 2.33495 5.21509 1.40743 7.4078C0.479919 9.60051 0.237239 12.0133 0.710082 14.3411C1.18293 16.6689 2.35005 18.8071 4.06388 20.4853C5.7777 22.1635 7.96125 23.3064 10.3384 23.7694C12.7155 24.2324 15.1795 23.9948 17.4187 23.0866C19.658 22.1783 21.5718 20.6402 22.9184 18.6668C24.2649 16.6935 24.9836 14.3734 24.9836 12C24.9836 8.8174 23.6926 5.76516 21.3944 3.51472C19.0962 1.26428 15.9792 0 12.7291 0ZM19.1789 14.1237C19.1791 14.4375 19.1161 14.7484 18.9936 15.0384C18.8711 15.3284 18.6915 15.5919 18.4649 15.8139C18.2383 16.0359 17.9693 16.2121 17.6732 16.3322C17.3771 16.4524 17.0598 16.5142 16.7393 16.5142H8.719C8.39849 16.5142 8.08112 16.4524 7.78503 16.3322C7.48894 16.2121 7.21992 16.0359 6.99336 15.8139C6.7668 15.5919 6.58714 15.3284 6.46463 15.0384C6.34212 14.7484 6.27917 14.4375 6.27939 14.1237V9.87632C6.27917 9.56246 6.34212 9.25164 6.46463 8.96162C6.58714 8.6716 6.7668 8.40806 6.99336 8.18605C7.21992 7.96405 7.48894 7.78794 7.78503 7.66779C8.08112 7.54763 8.39849 7.48579 8.719 7.48579H16.7393C17.0598 7.48579 17.3771 7.54763 17.6732 7.66779C17.9693 7.78794 18.2383 7.96405 18.4649 8.18605C18.6915 8.40806 18.8711 8.6716 18.9936 8.96162C19.1161 9.25164 19.1791 9.56246 19.1789 9.87632V14.1237Z" fill="#C6C8D9"/>
</svg>
